<svg width="27" height="26" viewBox="0 0 27 26" fill="none" xmlns="http://www.w3.org/2000/svg">
<path d="M13.5603 0.355049C6.54493 0.355049 0.805054 6.10518 0.805054 13.1872C0.805054 19.5905 5.47349 24.9052 11.5705 25.8657V16.9011H8.33067V13.1872H11.5705V10.357C11.5705 7.14251 13.4711 5.37521 16.392 5.37521C17.7823 5.37521 19.2364 5.61853 19.2364 5.61853V8.78175H17.6293C16.0476 8.78175 15.5502 9.76785 15.5502 10.7796V13.1872H19.0961L18.5221 16.9011H15.5502V25.8657C18.5559 25.3891 21.2929 23.8493 23.267 21.5243C25.2412 19.1994 26.3225 16.2424 26.3156 13.1872C26.3156 6.10518 20.5758 0.355049 13.5603 0.355049Z" fill="#CACACA"/>
</svg>
