<svg width="26" height="26" viewBox="0 0 26 26" fill="none" xmlns="http://www.w3.org/2000/svg">
<g clip-path="url(#clip0)">
<path d="M10.7164 13.0592C10.7164 14.4076 11.8094 15.5007 13.1578 15.5007C14.5062 15.5007 15.5992 14.4076 15.5992 13.0592C15.5992 11.7108 14.5062 10.6178 13.1578 10.6178C11.8094 10.6178 10.7164 11.7108 10.7164 13.0592Z" fill="#CACACA"/>
<path d="M7.44806 8.73951C7.56542 8.42149 7.75265 8.13363 7.99594 7.89735C8.23222 7.65406 8.51989 7.46682 8.83811 7.34946C9.09619 7.24923 9.48389 7.12992 10.198 7.09741C10.9705 7.06219 11.2021 7.0546 13.1577 7.0546C15.1136 7.0546 15.3452 7.06199 16.1175 7.09722C16.8316 7.12992 17.2195 7.24923 17.4774 7.34946C17.7956 7.46682 18.0834 7.65406 18.3195 7.89735C18.5628 8.13363 18.7501 8.42129 18.8676 8.73951C18.9678 8.99759 19.0872 9.38549 19.1197 10.0996C19.1549 10.8719 19.1625 11.1035 19.1625 13.0593C19.1625 15.015 19.1549 15.2466 19.1197 16.0191C19.0872 16.7332 18.9678 17.1209 18.8676 17.379C18.7501 17.6972 18.563 17.9849 18.3197 18.2211C18.0834 18.4644 17.7958 18.6517 17.4776 18.769C17.2195 18.8694 16.8316 18.9888 16.1175 19.0213C15.3452 19.0565 15.1138 19.0639 13.1579 19.0639C11.2019 19.0639 10.9703 19.0565 10.1982 19.0213C9.48409 18.9888 9.09619 18.8694 8.83811 18.769C8.19933 18.5226 7.69446 18.0177 7.44806 17.379C7.34782 17.1209 7.22851 16.7332 7.19582 16.0191C7.16059 15.2466 7.15319 15.015 7.15319 13.0593C7.15319 11.1035 7.16059 10.8719 7.19582 10.0996C7.22832 9.38549 7.34763 8.99759 7.44806 8.73951ZM13.1577 16.8202C15.235 16.8202 16.919 15.1364 16.919 13.0591C16.919 10.9819 15.235 9.2981 13.1577 9.2981C11.0806 9.2981 9.3967 10.9819 9.3967 13.0591C9.3967 15.1364 11.0806 16.8202 13.1577 16.8202ZM9.248 10.0284C9.73341 10.0284 10.127 9.63481 10.127 9.1494C10.127 8.664 9.73341 8.27045 9.248 8.27045C8.76259 8.27045 8.36905 8.664 8.36905 9.1494C8.36924 9.63481 8.76259 10.0284 9.248 10.0284Z" fill="#CACACA"/>
<path d="M13.1578 0.303894C20.2013 0.303894 25.9131 6.01571 25.9131 13.0592C25.9131 20.1027 20.2013 25.8145 13.1578 25.8145C6.1143 25.8145 0.402479 20.1027 0.402479 13.0592C0.402479 6.01571 6.1143 0.303894 13.1578 0.303894ZM5.87763 16.0789C5.91305 16.8586 6.03703 17.3909 6.21804 17.8568C6.59854 18.8407 7.37628 19.6184 8.36014 19.9989C8.82589 20.1799 9.3584 20.3037 10.1379 20.3393C10.9189 20.375 11.1685 20.3835 13.1576 20.3835C15.1469 20.3835 15.3962 20.375 16.1775 20.3393C16.957 20.3037 17.4895 20.1799 17.9552 19.9989C18.4441 19.815 18.8867 19.5268 19.2526 19.1541C19.6252 18.7883 19.9134 18.3456 20.0973 17.8568C20.2783 17.3911 20.4023 16.8586 20.4377 16.0791C20.4737 15.2978 20.4821 15.0483 20.4821 13.0592C20.4821 11.0701 20.4737 10.8206 20.4379 10.0395C20.4025 9.25982 20.2787 8.7275 20.0977 8.26156C19.9138 7.77284 19.6254 7.33005 19.2526 6.96434C18.8869 6.59163 18.4441 6.30338 17.9554 6.11945C17.4895 5.93845 16.9572 5.81466 16.1775 5.77904C15.3964 5.74343 15.1469 5.73486 13.1578 5.73486C11.1687 5.73486 10.9191 5.74343 10.1381 5.77924C9.3584 5.81466 8.82609 5.93845 8.36014 6.11926C7.87142 6.30318 7.42864 6.59163 7.06273 6.96434C6.69021 7.33025 6.40177 7.77284 6.21804 8.26156C6.03684 8.7275 5.91305 9.25982 5.87744 10.0395C5.84182 10.8206 5.83345 11.0701 5.83345 13.0592C5.83345 15.0483 5.84182 15.2978 5.87763 16.0789Z" fill="#CACACA"/>
</g>
<defs>
<clipPath id="clip0">
<rect width="25.5106" height="25.5106" fill="white" transform="matrix(-1 0 0 1 25.9131 0.303894)"/>
</clipPath>
</defs>
</svg>
