<svg width="26" height="26" viewBox="0 0 26 26" fill="none" xmlns="http://www.w3.org/2000/svg">
<path d="M12.7553 0.303894C5.71098 0.303894 0 6.01462 0 13.0592C0 20.1038 5.71098 25.8145 12.7553 25.8145C19.7996 25.8145 25.5106 20.1038 25.5106 13.0592C25.5106 6.01462 19.7996 0.303894 12.7553 0.303894ZM19.2255 14.4387C19.82 15.0194 20.4489 15.5659 20.9826 16.2066C21.2191 16.49 21.442 16.7831 21.6116 17.1127C21.8538 17.5827 21.6351 18.0982 21.2144 18.1261L18.6012 18.1256C17.9263 18.1814 17.3892 17.9092 16.9364 17.4478C16.575 17.0801 16.2396 16.6873 15.8915 16.3071C15.7492 16.151 15.5994 16.0041 15.4209 15.8885C15.0647 15.6567 14.7552 15.7277 14.5511 16.0999C14.3431 16.4785 14.2956 16.8982 14.2758 17.3197C14.2473 17.9358 14.0615 18.0969 13.4432 18.1258C12.1222 18.1877 10.8687 17.9872 9.70369 17.3212C8.67595 16.7338 7.88049 15.9046 7.18734 14.9659C5.83756 13.1359 4.80382 11.1274 3.875 9.06127C3.66596 8.59595 3.81889 8.34698 4.33224 8.33732C5.18511 8.32088 6.03799 8.32297 6.89086 8.33654C7.23797 8.34202 7.46763 8.54062 7.60099 8.86815C8.06187 10.0021 8.62689 11.081 9.33492 12.0816C9.52361 12.348 9.71621 12.6137 9.9905 12.8019C10.2932 13.0096 10.5239 12.941 10.6667 12.603C10.758 12.3882 10.7974 12.1586 10.8173 11.9284C10.8851 11.14 10.8932 10.3518 10.7758 9.56653C10.7027 9.07511 10.4263 8.75776 9.93648 8.66485C9.68698 8.61761 9.72352 8.52522 9.84488 8.38273C10.0555 8.13637 10.2528 7.98396 10.6471 7.98396L13.5996 7.98344C14.0649 8.07478 14.1693 8.28356 14.2324 8.75228L14.235 12.0333C14.2296 12.2147 14.3261 12.7523 14.6518 12.871C14.9128 12.9572 15.0851 12.7479 15.2411 12.5827C15.9492 11.8313 16.4536 10.9445 16.9054 10.0266C17.1048 9.62186 17.2767 9.20299 17.4438 8.78333C17.568 8.47303 17.7611 8.32036 18.1114 8.32558L20.9545 8.32897C21.0382 8.32897 21.1233 8.32975 21.2063 8.34411C21.6855 8.42605 21.8167 8.63223 21.6685 9.09964C21.4352 9.83403 20.9819 10.4458 20.5387 11.0591C20.0637 11.7157 19.5572 12.3493 19.0869 13.0088C18.6547 13.6117 18.6889 13.9152 19.2255 14.4387Z" fill="#CACACA"/>
</svg>
